<?xml version="1.0" encoding="utf-8"?>
<!-- Generator: Adobe Illustrator 24.0.1, SVG Export Plug-In . SVG Version: 6.00 Build 0)  -->
<svg version="1.1" id="Слой_1" xmlns="http://www.w3.org/2000/svg" xmlns:xlink="http://www.w3.org/1999/xlink" x="0px" y="0px"
	 viewBox="0 0 1920 1080" style="enable-background:new 0 0 1920 1080;" xml:space="preserve">
<style type="text/css">
	.st0{fill:#FFFFFF;stroke:#000000;stroke-miterlimit:10;}
	.st1{fill:none;stroke:#000000;stroke-miterlimit:10;}
	.st2{fill:none;}
</style>
<polygon class="st0" points="0,337.77 14.17,350.59 22.72,359.14 28.42,359.14 41.96,359.14 62.62,363.42 81.85,363.42 
	93.96,363.42 98.95,379.8 98.95,392.62 89.69,401.17 79.71,408.3 76.15,421.12 86.12,429.67 90.4,441.07 80.43,446.05 67.6,458.16 
	49.47,470.28 41.24,478.82 25.57,478.82 0,478.82 "/>
<polygon class="st1" points="29.52,375.39 28.8,359 42.34,359 63,363.27 63,371.11 63,380.37 54.45,386.07 45.91,385.78 
	33.79,385.36 "/>
<polygon class="st1" points="63,380.37 63,363.27 93.96,363.42 98.95,379.8 98.95,392.62 79.71,408.3 69.03,408.3 63,405.45 
	63,396.19 70.45,389.77 "/>
<path class="st1" d="M33.79,385.36l20.66,0.71l8.55-5.7l7.45,9.4L63,396.19v9.26l-6.8,9.97l-6.73,4.99l-10.37,2.85l-5.31,10.69
	l-4.99-11.4l-10.36-6.41c0,0,2.85-5.84,0-8.98c-2.85-3.14,6.41-8.83,6.41-8.83l3.95-8.55L33.79,385.36z"/>
<path class="st1" d="M8.47,403.31"/>
<polygon class="st1" points="0,403.31 18.97,403.31 28.8,389.77 33.79,385.36 29.52,375.39 28.99,363.27 28.8,359 22.72,359.14 
	0,337.77 "/>
<polygon class="st1" points="33.79,433.94 33.79,478.82 0,478.82 0,403.31 18.97,403.31 19.71,411.17 18.45,416.13 28.8,422.54 "/>
<path class="st2" d="M80.43,446.05l18.52,19.71l6.92,13.06c0,0-6.77,22.42-12.72,24.28c-5.95,1.87-0.82-7.47-12.72-11.2
	s-30.95-21.63-30.95-21.63l18.13-12.11L80.43,446.05z"/>
<path class="st2" d="M285.1,549.78"/>
<path class="st2" d="M421.4-122.36"/>
</svg>
